<?xml version="1.0" encoding="UTF-8" standalone="no"?>
<!-- Created with Inkscape (http://www.inkscape.org/) -->

<svg
   width="16.0px"
   height="16.0px"
   viewBox="0 0 16.0 16.0"
   version="1.1"
   id="SVGRoot"
   sodipodi:docname="play.svg"
   inkscape:version="1.2.2 (b0a8486541, 2022-12-01)"
   xmlns:inkscape="http://www.inkscape.org/namespaces/inkscape"
   xmlns:sodipodi="http://sodipodi.sourceforge.net/DTD/sodipodi-0.dtd"
   xmlns="http://www.w3.org/2000/svg"
   xmlns:svg="http://www.w3.org/2000/svg">
  <sodipodi:namedview
     id="namedview26413"
     pagecolor="#ffffff"
     bordercolor="#000000"
     borderopacity="0.25"
     inkscape:showpageshadow="2"
     inkscape:pageopacity="0.0"
     inkscape:pagecheckerboard="0"
     inkscape:deskcolor="#d1d1d1"
     inkscape:document-units="px"
     showgrid="true"
     inkscape:zoom="32"
     inkscape:cx="4.75"
     inkscape:cy="11.90625"
     inkscape:window-width="1920"
     inkscape:window-height="1013"
     inkscape:window-x="0"
     inkscape:window-y="30"
     inkscape:window-maximized="1"
     inkscape:current-layer="layer1">
    <inkscape:grid
       type="xygrid"
       id="grid26899" />
  </sodipodi:namedview>
  <defs
     id="defs26408">
    <inkscape:path-effect
       effect="spiro"
       id="path-effect27381"
       is_visible="true"
       lpeversion="1" />
  </defs>
  <g
     inkscape:label="Слой 1"
     inkscape:groupmode="layer"
     id="layer1">
    <path
       style="opacity:1;fill:#ffffff;fill-opacity:1;stroke:#5b5b5b;stroke-width:0.840738;stroke-linecap:round;stroke-linejoin:round;paint-order:markers fill stroke;stroke-opacity:1"
       d="m 3.2295398,13.300494 c 0.3431232,0.272103 0.7779328,0.42642 1.2158227,0.431505 0.4378899,0.0051 0.8761658,-0.139094 1.2255152,-0.403155 L 8.8655396,11.484411 C 9.9578251,10.918771 11.0242,10.303099 12.060201,9.6399717 12.396883,9.4244674 12.733847,9.2010482 13.006638,8.9088466 13.279429,8.616645 13.485968,8.2456765 13.509721,7.8466371 13.535495,7.4136346 13.342494,6.988717 13.059571,6.6599162 12.776648,6.3311154 12.409352,6.0866981 12.035091,5.8674174 10.992379,5.2564895 9.896525,4.7403956 8.8573636,4.1234482 L 5.5440545,2.1563454 C 4.9447472,1.8955958 4.2283038,1.9206077 3.6486397,2.2225167 3.3173719,2.3950523 3.0312983,2.6534675 2.8260826,2.9655467 2.6208669,3.2776258 2.4969623,3.6426794 2.4698156,4.0151978 c 9.315e-4,0.4954807 0.00173,0.9909617 0.0024,1.4864428 0.00109,0.8048221 0.00182,1.6096447 0.0024,2.4144674 9.299e-4,1.3006781 0.00143,2.601357 0.00151,3.902035 0.02294,0.57128 0.3054379,1.127098 0.7534142,1.482351 z"
       id="path27379"
       inkscape:path-effect="#path-effect27381"
       inkscape:original-d="m 3.2295398,13.300494 c 1.0648956,0.614798 2.4413379,0.02835 2.4413379,0.02835 l 3.1946619,-1.844433 c 0,0 2.2455574,-1.062658 3.1946614,-1.8444393 0.621213,-0.5117011 1.499147,-0.9988785 1.44952,-1.7933346 C 13.460095,7.052181 12.961236,6.4148959 12.035091,5.8674174 11.108947,5.3199389 8.8573636,4.1234482 8.8573636,4.1234482 L 5.5440545,2.1563454 C 5.0740958,2.0054754 4.2030266,1.8857282 3.6486397,2.2225167 2.8977345,2.6786898 2.4698156,4.0151978 2.4698156,4.0151978 l 0.0024,1.4864428 0.0024,2.4144674 0.00151,3.902035 c 0,0 -0.2151389,0.923173 0.7534142,1.482351 z"
       sodipodi:nodetypes="sccszzccsccccs" />
  </g>
</svg>
