<?xml version="1.0" encoding="UTF-8" standalone="no"?>
<!-- Created with Inkscape (http://www.inkscape.org/) -->

<svg
   width="16.0px"
   height="16.0px"
   viewBox="0 0 16.0 16.0"
   version="1.1"
   id="SVGRoot"
   sodipodi:docname="ico_to_end.svg"
   inkscape:version="1.2.2 (b0a8486, 2022-12-01)"
   xmlns:inkscape="http://www.inkscape.org/namespaces/inkscape"
   xmlns:sodipodi="http://sodipodi.sourceforge.net/DTD/sodipodi-0.dtd"
   xmlns="http://www.w3.org/2000/svg"
   xmlns:svg="http://www.w3.org/2000/svg">
  <sodipodi:namedview
     id="namedview26413"
     pagecolor="#ffffff"
     bordercolor="#000000"
     borderopacity="0.25"
     inkscape:showpageshadow="2"
     inkscape:pageopacity="0.0"
     inkscape:pagecheckerboard="0"
     inkscape:deskcolor="#d1d1d1"
     inkscape:document-units="px"
     showgrid="true"
     inkscape:zoom="22.627417"
     inkscape:cx="8.1538251"
     inkscape:cy="14.628272"
     inkscape:window-width="960"
     inkscape:window-height="1011"
     inkscape:window-x="0"
     inkscape:window-y="32"
     inkscape:window-maximized="0"
     inkscape:current-layer="layer1">
    <inkscape:grid
       type="xygrid"
       id="grid26899" />
  </sodipodi:namedview>
  <defs
     id="defs26408">
    <inkscape:path-effect
       effect="spiro"
       id="path-effect27381"
       is_visible="true"
       lpeversion="1" />
  </defs>
  <g
     inkscape:label="Слой 1"
     inkscape:groupmode="layer"
     id="layer1">
    <path
       style="opacity:1;fill:#f2f2f2;fill-opacity:1;stroke:#5b5b5b;stroke-width:0.840738;stroke-linecap:round;stroke-linejoin:round;stroke-opacity:1;paint-order:markers fill stroke"
       d="m 6.2714416,13.800009 c 0.5078776,0.05079 1.031339,-0.06924 1.4663569,-0.336216 L 11.051896,11.195844 C 11.727271,10.733662 12.380294,10.239849 13.049347,9.7685615 13.375414,9.5388766 13.711594,9.3172275 13.98729,9.0290148 14.262986,8.7408021 14.477299,8.3734851 14.498867,7.9752269 14.51053,7.7598602 14.465201,7.5432224 14.38077,7.3447527 14.296339,7.146283 14.173535,6.9654812 14.030402,6.8041375 13.744136,6.4814502 13.381012,6.2384674 13.024237,5.9960072 12.177479,5.4205599 11.342685,4.8275061 10.520579,4.2173583 L 7.6109755,2.2912943 C 7.0116683,2.0305439 6.2952245,2.0555553 5.7155601,2.3574643 5.3842923,2.5299998 5.0982187,2.788415 4.8930029,3.1004941 4.6877872,3.4125732 4.5638827,3.7776269 4.5367361,4.1501453 c 9.314e-4,0.4954808 0.00173,0.9909618 0.0024,1.486443 0.00109,0.8048222 0.00183,1.6096449 0.0024,2.4144676 9.291e-4,1.3006782 0.00143,2.6013571 0.0015,3.9020351 -0.0152,0.465207 0.1671305,0.932633 0.4896829,1.268205 0.3225523,0.335572 0.7755676,0.532397 1.2387126,0.578712 3.3e-6,0 6.7e-6,10e-7 1e-5,10e-7 z"
       id="path27379"
       inkscape:path-effect="#path-effect27381"
       inkscape:original-d="m 6.2714416,13.800009 c 1.2235229,0.122353 1.4663569,-0.336216 1.4663569,-0.336216 l 3.3140975,-2.267949 c 0,0 1.048347,-0.645501 1.997451,-1.4272825 C 13.67056,9.2568604 14.548494,8.769683 14.498867,7.9752269 14.449241,7.1807708 13.950382,6.5434857 13.024237,5.9960072 12.098093,5.4485283 10.520579,4.2173583 10.520579,4.2173583 L 7.6109755,2.2912943 c -0.469959,-0.15087 -1.3410279,-0.270617 -1.8954154,0.06617 -0.750905,0.456173 -1.178824,1.792681 -1.178824,1.792681 l 0.0024,1.486443 0.0024,2.4144676 0.0015,3.9020351 c 0,0 0.615565,1.735634 1.7283955,1.846917 z"
       sodipodi:nodetypes="sccszzccsccccss" />
    <rect
       style="fill:#f2f2f2;stroke:#5b5b5b;stroke-width:0.790463;stroke-dasharray:none;stroke-opacity:1"
       id="rect11084"
       width="3.3307865"
       height="12.057693"
       x="-4.6806602"
       y="-13.949393"
       ry="1.1505858"
       transform="scale(-1)" />
  </g>
</svg>
